<?xml version="1.0" encoding="utf-8"?>
<!-- Generator: Adobe Illustrator 15.0.0, SVG Export Plug-In . SVG Version: 6.00 Build 0)  -->
<!DOCTYPE svg PUBLIC "-//W3C//DTD SVG 1.1//EN" "http://www.w3.org/Graphics/SVG/1.1/DTD/svg11.dtd">
<svg version="1.1" id="Layer_1" xmlns="http://www.w3.org/2000/svg" xmlns:xlink="http://www.w3.org/1999/xlink" x="0px" y="0px"
	 width="468px" height="227px" viewBox="70.5 21.1 468 227" enable-background="new 70.5 21.1 468 227" xml:space="preserve">
<path fill="#FFB900" d="M450.51,96.654c0.835-4.042,4.788-6.641,8.832-5.805c4.04,0.834,6.64,4.788,5.805,8.83
	c-0.836,4.041-4.79,6.64-8.829,5.805C452.273,104.649,449.674,100.696,450.51,96.654"/>
<path fill="#FFB900" d="M472.885,133.102c0.835-4.042,4.789-6.641,8.831-5.805c4.041,0.835,6.641,4.789,5.804,8.829
	c-0.836,4.043-4.788,6.642-8.828,5.806C474.647,141.096,472.05,137.143,472.885,133.102"/>
<path fill="#FFB900" d="M480.81,175.348c0.835-4.042,4.787-6.641,8.83-5.805c4.041,0.834,6.641,4.787,5.805,8.828
	c-0.835,4.043-4.788,6.642-8.829,5.805C482.572,183.34,479.973,179.39,480.81,175.348"/>
<path fill="#3DCDC2" d="M475.067,70.641c1.111-5.378,6.373-8.838,11.752-7.725c5.38,1.111,8.837,6.373,7.726,11.751
	c-1.112,5.379-6.373,8.838-11.752,7.725C477.415,81.281,473.956,76.019,475.067,70.641"/>
<path fill="#3DCDC2" d="M504.844,119.146c1.111-5.377,6.373-8.837,11.753-7.725c5.378,1.112,8.836,6.373,7.724,11.751
	s-6.372,8.836-11.749,7.724C507.191,129.784,503.732,124.524,504.844,119.146"/>
<path fill="#3DCDC2" d="M515.391,175.366c1.111-5.378,6.371-8.837,11.752-7.726c5.379,1.112,8.836,6.373,7.725,11.752
	c-1.112,5.378-6.372,8.835-11.75,7.726C517.736,186.004,514.278,180.745,515.391,175.366"/>
<path fill="#3DCDC2" d="M507.308,232.441c1.112-5.378,6.374-8.839,11.755-7.728c5.377,1.111,8.834,6.375,7.723,11.754
	c-1.111,5.375-6.37,8.834-11.748,7.724C509.655,243.079,506.197,237.818,507.308,232.441"/>
<path fill="#3DCDC2" d="M425.295,34.466c1.112-5.377,6.373-8.835,11.752-7.724c5.377,1.112,8.836,6.373,7.726,11.75
	c-1.112,5.38-6.375,8.839-11.751,7.727C427.643,45.107,424.183,39.845,425.295,34.466"/>
<path fill="#C90061" d="M441.729,146.708c0.564-2.739,3.242-4.499,5.98-3.933c2.74,0.567,4.499,3.244,3.934,5.981
	c-0.565,2.738-3.243,4.5-5.981,3.934S441.162,149.446,441.729,146.708"/>
<path fill="#3DCDC2" d="M80.836,88.716c-1.331,0-2.517-0.517-3.549-1.553c-1.036-1.032-1.553-2.439-1.553-4.214
	c0-1.625,0.517-2.956,1.553-3.992c1.032-1.032,2.218-1.552,3.549-1.552c1.33,0,2.512,0.52,3.548,1.552
	c1.033,1.036,1.553,2.367,1.553,3.992c0,1.775-0.555,3.182-1.663,4.214C83.164,88.199,82.018,88.716,80.836,88.716"/>
<rect x="78.396" y="127.084" fill="#3DCDC2" width="4.88" height="102.021"/>
<path fill="#3DCDC2" d="M130.958,88.716c-1.331,0-2.517-0.517-3.549-1.553c-1.036-1.032-1.553-2.439-1.553-4.214
	c0-1.625,0.517-2.956,1.553-3.992c1.032-1.032,2.218-1.552,3.549-1.552c1.33,0,2.512,0.52,3.548,1.552
	c1.033,1.036,1.553,2.367,1.553,3.992c0,1.775-0.555,3.182-1.663,4.214C133.286,88.199,132.14,88.716,130.958,88.716"/>
<rect x="128.518" y="127.084" fill="#3DCDC2" width="4.88" height="102.021"/>
<rect x="178.873" y="77.405" fill="#3DCDC2" width="4.414" height="151.699"/>
<path fill="#3DCDC2" d="M287.757,206.038c0,3.848,0.183,7.95,0.554,12.311c0.368,4.361,0.776,7.949,1.22,10.757h-4.658
	c-0.298-1.478-0.519-3.289-0.665-5.435c-0.149-2.143-0.333-4.358-0.555-6.653c-0.221-2.291-0.37-4.548-0.443-6.765
	c-0.076-2.219-0.111-4.064-0.111-5.545h-0.665c-2.959,9.314-8.061,16.229-15.303,20.736c-7.246,4.51-15.009,6.764-23.287,6.764
	c-4.142,0-8.244-0.592-12.31-1.772c-4.068-1.187-7.727-2.956-10.977-5.322c-3.254-2.362-5.877-5.396-7.873-9.094
	c-1.996-3.692-2.995-8.058-2.995-13.085c0-7.242,1.885-13.085,5.656-17.521c3.77-4.436,8.462-7.873,14.083-10.312
	c5.618-2.438,11.643-4.026,18.075-4.769c6.432-0.738,12.31-1.108,17.632-1.108h17.742v-8.207c0-11.384-3.032-19.7-9.093-24.95
	c-6.064-5.247-13.971-7.873-23.73-7.873c-6.065,0-11.72,1.109-16.967,3.326c-5.25,2.218-9.945,5.178-14.083,8.872l-2.661-3.77
	c4.73-4.138,10.091-7.281,16.079-9.426c5.988-2.142,11.865-3.216,17.632-3.216c11.677,0,20.882,2.994,27.611,8.982
	c6.727,5.989,10.092,15.416,10.092,28.279V206.038L287.757,206.038z M282.877,173.437h-15.746c-5.621,0-11.532,0.333-17.742,0.998
	c-6.21,0.666-11.904,2.034-17.077,4.104c-5.178,2.071-9.427,5.026-12.753,8.871c-3.328,3.846-4.991,9.02-4.991,15.523
	c0,4.732,0.922,8.688,2.773,11.865c1.847,3.182,4.214,5.73,7.097,7.65c2.882,1.924,6.06,3.327,9.537,4.215
	c3.471,0.887,6.764,1.33,9.869,1.33c7.541,0,13.823-1.402,18.851-4.213c5.025-2.809,9.055-6.395,12.087-10.758
	c3.029-4.359,5.136-9.166,6.322-14.416c1.181-5.246,1.773-10.385,1.773-15.413V173.437z"/>
<path fill="#3DCDC2" d="M325.901,154.808c4.426-10.203,10.731-17.888,18.918-23.066c8.185-5.174,17.148-7.762,26.888-7.762
	c7.52,0,14.415,1.369,20.688,4.103c6.27,2.737,11.654,6.508,16.152,11.311c4.498,4.808,7.967,10.534,10.399,17.188
	c2.433,6.653,3.651,13.899,3.651,21.733c0,7.688-1.255,14.825-3.764,21.401c-2.509,6.582-6.012,12.275-10.511,17.076
	c-4.497,4.809-9.883,8.578-16.151,11.312c-6.271,2.734-13.092,4.104-20.466,4.104c-4.869,0-9.627-0.666-14.274-1.998
	c-4.646-1.33-8.961-3.287-12.941-5.875c-3.985-2.586-7.601-5.768-10.844-9.537c-3.247-3.77-5.828-8.168-7.745-13.196h-0.665v27.502
	h-5.102v-151.7h5.102v77.402L325.901,154.808L325.901,154.808z M417.72,178.315c0-6.652-1.07-13.008-3.209-19.072
	c-2.142-6.062-5.202-11.385-9.184-15.969c-3.981-4.581-8.812-8.241-14.492-10.978c-5.68-2.734-12.059-4.103-19.137-4.103
	c-6.784,0-13.019,1.33-18.694,3.992c-5.681,2.661-10.583,6.248-14.714,10.757c-4.132,4.512-7.377,9.797-9.737,15.857
	c-2.359,6.064-3.538,12.494-3.538,19.295c0,6.802,1.179,13.232,3.538,19.295c2.36,6.064,5.605,11.35,9.737,15.857
	c4.131,4.512,9.033,8.094,14.714,10.756c5.677,2.662,11.91,3.992,18.694,3.992c7.078,0,13.457-1.33,19.137-3.992
	s10.511-6.244,14.492-10.756c3.98-4.51,7.042-9.793,9.184-15.857C416.648,191.329,417.72,184.969,417.72,178.315"/>
</svg>
